<svg width="217" height="24" viewBox="0 0 217 24" fill="none" xmlns="http://www.w3.org/2000/svg">
<path d="M133.391 16.8644C132.509 17.7034 131.606 18.5205 130.724 19.3805C129.842 20.2405 128.573 21.5314 127.498 22.6064C127.235 22.8763 126.884 23.0439 126.509 23.0795H113.609V16.8644H122.965C123.54 16.8963 124.113 16.7635 124.616 16.4816C125.119 16.1996 125.531 15.7802 125.804 15.2725H113.504V0.794495H133.399V7.24646H120.616V8.79449H133.392L133.391 16.8644Z" fill="white"/>
<path d="M87.9441 0.751526V23.1195H75.2761C74.7756 23.1033 74.2965 22.9131 73.9211 22.5815C72.1581 20.8605 70.4151 19.1185 68.7211 17.3335C68.3561 16.9058 68.1449 16.3683 68.1211 15.8065V0.751526H87.9441ZM80.8441 16.8605V7.35449H75.1231C74.9714 9.73241 74.9714 12.1176 75.1231 14.4955C75.2929 15.0099 75.5736 15.4806 75.9453 15.8746C76.3169 16.2685 76.7705 16.5761 77.2741 16.7755C78.4492 17.0187 79.6586 17.0469 80.8441 16.8605Z" fill="white"/>
<path d="M42.5224 0.751526V7.20349H30.1544V8.73053H40.5424V15.1825H30.4995C31.3385 16.2575 31.9624 16.9675 33.3384 16.9245C36.4784 16.7955 39.6184 16.9245 42.8234 16.9245V23.3765H30.2234C29.7306 23.3554 29.2599 23.1654 28.8904 22.8385C27.1054 21.1175 25.3634 19.3755 23.6904 17.5905C23.3225 17.1708 23.1031 16.6415 23.0664 16.0845C23.0664 11.0515 23.0664 5.99754 23.0664 1.02954L42.5224 0.751526Z" fill="white"/>
<path d="M110.573 0.751526V7.20349H98.2277V8.73053H108.616V15.1825H98.5717C99.3887 16.2575 100.034 16.9675 101.411 16.9245C104.551 16.7955 107.691 16.9245 110.896 16.9245V23.3765H98.2957C97.8028 23.3554 97.3322 23.1655 96.9627 22.8385C95.1777 21.1175 93.4358 19.3755 91.7368 17.5905C91.3748 17.1696 91.1636 16.64 91.1367 16.0855C91.1367 11.0525 91.1367 5.99854 91.1367 1.02954L110.573 0.751526Z" fill="white"/>
<path d="M19.89 0.751526V23.1195H12.8571V14.9035H7.07202V23.1835H0V0.751526H7.01202V8.4295H12.862V0.751526H19.89Z" fill="white"/>
<path d="M65.3403 0.751526V11.5055C65.3067 12.0271 65.0949 12.5214 64.7403 12.9055C63.0623 14.6905 61.3203 16.3685 59.6213 18.1315C59.429 18.3409 59.1916 18.5037 58.927 18.6077C58.6624 18.7116 58.3777 18.754 58.0943 18.7315H52.5883V23.0315H45.4883V0.665466L65.3403 0.751526ZM52.5643 7.20349V12.1715C57.2963 12.9025 58.8873 10.8385 58.1563 7.20349H52.5643Z" fill="white"/>
<path d="M61.8568 16.9895L65.9427 23.1835C64.5113 23.0792 63.0742 23.0792 61.6428 23.1835C60.5986 23.4713 59.4833 23.3395 58.535 22.8163C57.5866 22.2932 56.8803 21.4202 56.5667 20.3835C56.5667 20.1895 56.3307 20.0175 56.1367 19.6955C57.2546 19.8031 58.3827 19.7159 59.4707 19.4375C60.3507 19.0115 60.9968 17.9145 61.8568 16.9895Z" fill="#F99D1C"/>
<path d="M216.65 0.751526V7.20349H204.307V8.73053H214.695V15.1825H204.651C205.469 16.2575 206.114 16.9675 207.49 16.9245C210.63 16.7955 213.77 16.9245 216.975 16.9245V23.3765H204.375C203.882 23.3554 203.411 23.1655 203.042 22.8385C201.257 21.1175 199.515 19.3755 197.815 17.5905C197.453 17.1696 197.242 16.64 197.215 16.0855V1.03052L216.65 0.751526Z" fill="white"/>
<path d="M161.461 0.751526V23.1195H154.448V14.9035H148.663V23.1835H141.562V0.751526H148.596V8.4295H154.445V0.751526H161.461Z" fill="white"/>
<path d="M194.623 0.751465C193.892 6.30046 193.182 11.8275 192.472 17.3775C192.214 19.2915 191.956 21.2055 191.698 23.1635H177.008C176.793 21.4215 176.535 19.6795 176.32 17.9635C175.61 12.3925 174.879 6.82246 174.169 1.25146C174.157 1.08666 174.157 0.921278 174.169 0.75647H180.794C180.772 0.955884 180.772 1.15709 180.794 1.35651L182.213 12.3475L182.794 16.6475H185.934C186.085 15.5725 186.214 14.4965 186.342 13.5285C186.901 9.2265 187.446 4.92648 187.977 0.628479L194.623 0.751465Z" fill="white"/>
<path d="M171.611 0.751526V7.20349H164.578V0.751526H171.611Z" fill="#F99D1C"/>
<path d="M171.609 8.25751V23.1575H164.727V8.25751H171.609Z" fill="white"/>
</svg>
